<svg aria-hidden="true" style="position: absolute; width: 0; height: 0; overflow: hidden;" version="1.1" xmlns="http://www.w3.org/2000/svg" xmlns:xlink="http://www.w3.org/1999/xlink">
<defs>
<symbol id="add-icon" viewBox="0 0 32 32">
<path fill="#4ebc3b" style="fill: var(--color1, #4ebc3b)" d="M15.982 31.788c-8.716 0-15.806-7.091-15.806-15.806s7.091-15.806 15.806-15.806c8.716 0 15.806 7.091 15.806 15.806s-7.091 15.806-15.806 15.806z"></path>
<path fill="#fff" style="fill: var(--color2, #fff)" d="M15.982 24.923c-0.97 0-1.756-0.786-1.756-1.756v-14.369c0-0.97 0.786-1.756 1.756-1.756s1.756 0.786 1.756 1.756v14.369c0 0.97-0.786 1.756-1.756 1.756z"></path>
<path fill="#fff" style="fill: var(--color2, #fff)" d="M23.167 17.738h-14.369c-0.97 0-1.756-0.786-1.756-1.756s0.786-1.756 1.756-1.756h14.369c0.97 0 1.756 0.786 1.756 1.756s-0.786 1.756-1.756 1.756z"></path>
</symbol>
<symbol id="delete-icon" viewBox="0 0 32 32">
<path d="M12.673 11.969h-1.327v9.426c0 1.18 0.96 2.139 2.139 2.139h4.993c1.18 0 2.139-0.959 2.139-2.139v-9.426h-7.945zM15.034 20.12c0 0.388-0.315 0.703-0.703 0.703s-0.703-0.315-0.703-0.703v-5.344c0-0.388 0.315-0.703 0.703-0.703s0.703 0.315 0.703 0.703v5.344zM18.335 20.12c0 0.388-0.315 0.703-0.703 0.703s-0.703-0.315-0.703-0.703v-5.344c0-0.388 0.315-0.703 0.703-0.703s0.703 0.315 0.703 0.703v5.344z"></path>
<path d="M18.589 9.341c0-0.502-0.409-0.911-0.911-0.911h-3.392c-0.502 0-0.911 0.409-0.911 0.911v1.223h5.213v-1.223z"></path>
<path d="M15.982 0.176c-8.73 0-15.806 7.077-15.806 15.806s7.077 15.806 15.806 15.806 15.806-7.077 15.806-15.806c0-8.73-7.077-15.806-15.806-15.806zM23.215 11.969h-1.192v9.426c0 1.954-1.59 3.544-3.544 3.544h-4.993c-1.954 0-3.544-1.59-3.544-3.544v-9.426h-1.192c-0.388 0-0.703-0.315-0.703-0.703s0.315-0.703 0.703-0.703h3.221v-1.223c0-1.277 1.039-2.316 2.316-2.316h3.392c1.277 0 2.316 1.039 2.316 2.316v1.223h3.221c0.388 0 0.703 0.315 0.703 0.703s-0.315 0.703-0.703 0.703z"></path>
</symbol>
<symbol id="edit-icon" viewBox="0 0 32 32">
<path fill="#208fe8" style="fill: var(--color3, #208fe8)" d="M31.788 15.982c0 8.73-7.077 15.806-15.806 15.806s-15.806-7.077-15.806-15.806c0-8.73 7.077-15.806 15.806-15.806s15.806 7.077 15.806 15.806z"></path>
<path fill="#fff" style="fill: var(--color2, #fff)" d="M24.733 23.856l-1.777-5.828c-0.002-0.008-0.007-0.014-0.010-0.022-0.012-0.036-0.028-0.071-0.046-0.104-0.007-0.013-0.013-0.027-0.021-0.040-0.028-0.044-0.059-0.087-0.098-0.125l-9.592-9.592c-1.255-1.255-3.298-1.255-4.554 0l-0.491 0.491c-1.255 1.255-1.255 3.298 0 4.554l9.592 9.592c0.039 0.039 0.081 0.070 0.125 0.098 0.013 0.008 0.027 0.014 0.040 0.021 0.034 0.018 0.069 0.034 0.104 0.046 0.008 0.003 0.014 0.007 0.022 0.010l5.828 1.777c0.067 0.020 0.136 0.030 0.205 0.030 0.183 0 0.363-0.072 0.497-0.206 0.184-0.183 0.251-0.453 0.175-0.701zM9.137 9.628l0.491-0.491c0.708-0.708 1.859-0.707 2.567 0l9.096 9.096-3.058 3.058-9.096-9.095c-0.707-0.708-0.707-1.859 0-2.567zM19.557 21.953l2.396-2.396 1.051 3.447-3.447-1.051z"></path>
</symbol>
<symbol id="no-icon" viewBox="0 0 32 32">
<path fill="#e63e32" style="fill: var(--color4, #e63e32)" d="M31.788 15.982c0 8.73-7.077 15.806-15.806 15.806s-15.806-7.077-15.806-15.806c0-8.73 7.077-15.806 15.806-15.806s15.806 7.077 15.806 15.806z"></path>
<path fill="#fff" style="fill: var(--color2, #fff)" d="M9.719 22.947c-0.18 0-0.36-0.069-0.497-0.206-0.274-0.274-0.274-0.719 0-0.993l12.526-12.526c0.274-0.274 0.719-0.274 0.993 0s0.274 0.719 0 0.993l-12.526 12.526c-0.137 0.137-0.317 0.206-0.497 0.206z"></path>
<path fill="#fff" style="fill: var(--color2, #fff)" d="M22.245 22.947c-0.18 0-0.359-0.069-0.497-0.206l-12.526-12.526c-0.274-0.274-0.274-0.719 0-0.993s0.719-0.274 0.993 0l12.526 12.526c0.274 0.274 0.274 0.719 0 0.993-0.137 0.137-0.317 0.206-0.497 0.206z"></path>
</symbol>
<symbol id="ok-icon" viewBox="0 0 32 32">
<path fill="#28c937" style="fill: var(--color5, #28c937)" d="M31.788 15.982c0 8.73-7.077 15.806-15.806 15.806s-15.806-7.077-15.806-15.806c0-8.73 7.077-15.806 15.806-15.806s15.806 7.077 15.806 15.806z"></path>
<path fill="#fff" style="fill: var(--color2, #fff)" d="M13.691 22.831c-0.004 0-0.007 0-0.010 0-0.457-0.003-0.89-0.203-1.188-0.549l-4.734-5.498c-0.57-0.661-0.495-1.66 0.167-2.229s1.66-0.495 2.229 0.166l3.552 4.125 8.116-9.18c0.578-0.654 1.577-0.716 2.231-0.137s0.715 1.577 0.137 2.231l-9.316 10.537c-0.301 0.339-0.732 0.534-1.185 0.534z"></path>
</symbol>
</defs>
</svg>
