<svg width="256" height="256" xmlns="http://www.w3.org/2000/svg" xmlns:svg="http://www.w3.org/2000/svg" version="1.1" xml:space="preserve">

 <g class="layer">
  <title>Layer 1</title>
  <g fill="none" fill-rule="nonzero" id="svg_1" stroke-miterlimit="10" stroke-width="0" transform="matrix(2.81 0 0 2.81 0 0)">
   <circle cx="45.5" cy="45.5" fill="rgb(32,196,203)" fill-rule="nonzero" id="svg_2" r="45" stroke-miterlimit="10"/>
   <circle cx="37.18" cy="31.44" fill="rgb(255,255,255)" fill-rule="nonzero" id="svg_6" r="11.29" stroke-miterlimit="10"/>
   <path d="m37.18,45.72c-7.88,0 -14.29,-6.41 -14.29,-14.28s6.41,-14.29 14.29,-14.29s14.29,6.41 14.29,14.29s-6.41,14.28 -14.29,14.28zm0,-22.57c-4.57,0 -8.29,3.72 -8.29,8.29s3.72,8.28 8.29,8.28c4.57,0 8.29,-3.71 8.29,-8.28s-3.72,-8.29 -8.29,-8.29z" fill="rgb(255,255,255)" fill-rule="nonzero" id="svg_7" stroke-miterlimit="10"/>
   <path d="m52.31,65.33l0,-7.81c0,-6.07 -4.97,-11.03 -11.03,-11.03l-7.82,0c-6.07,0 -11.03,4.96 -11.03,11.03l0,7.81l29.88,0" fill="rgb(255,255,255)" fill-rule="nonzero" id="svg_8" stroke-miterlimit="10"/>
   <path d="m52.31,68.33l-29.88,0c-1.66,0 -3,-1.34 -3,-3l0,-7.81c0,-7.74 6.29,-14.03 14.03,-14.03l7.82,0c7.73,0 14.03,6.29 14.03,14.03l0,7.81c0,1.66 -1.34,3 -3,3zm-26.88,-6l23.88,0l0,-4.81c0,-4.43 -3.61,-8.03 -8.03,-8.03l-7.82,0c-4.43,0 -8.03,3.6 -8.03,8.03l0,4.81z" fill="rgb(255,255,255)" fill-rule="nonzero" id="svg_9" stroke-miterlimit="10"/>
   <circle cx="63.65" cy="61.62" fill="rgb(32,196,203)" fill-rule="nonzero" id="svg_10" r="16.22" stroke-miterlimit="10"/>
   <path d="m70.72,70.77c-0.77,0 -1.53,-0.29 -2.12,-0.88l-11.8,-11.8c-1.17,-1.17 -1.17,-3.07 0,-4.24c1.17,-1.17 3.07,-1.17 4.24,0l11.8,11.8c1.17,1.17 1.17,3.07 0,4.24c-0.58,0.59 -1.35,0.88 -2.12,0.88z" fill="rgb(255,255,255)" fill-rule="nonzero" id="svg_13" stroke-miterlimit="10"/>
   <path d="m58.92,70.77c-0.77,0 -1.54,-0.29 -2.12,-0.88c-1.17,-1.17 -1.17,-3.07 0,-4.24l11.8,-11.8c1.17,-1.17 3.07,-1.17 4.24,0c1.17,1.17 1.17,3.07 0,4.24l-11.8,11.8c-0.59,0.59 -1.35,0.88 -2.12,0.88z" fill="rgb(255,255,255)" fill-rule="nonzero" id="svg_14" stroke-miterlimit="10"/>
  </g>
 </g>
</svg>